<?xml version="1.0" standalone="no"?>
<!DOCTYPE svg PUBLIC "-//W3C//DTD SVG 20010904//EN"
 "http://www.w3.org/TR/2001/REC-SVG-20010904/DTD/svg10.dtd">
<svg version="1.0" xmlns="http://www.w3.org/2000/svg"
 width="400.000000pt" height="400.000000pt" viewBox="0 0 400.000000 400.000000"
 preserveAspectRatio="xMidYMid meet">
<metadata>
Created by potrace 1.14, written by Peter Selinger 2001-2017
</metadata>
<g transform="translate(0.000000,400.000000) scale(0.100000,-0.100000)"
fill="#000000" stroke="none">
<path d="M372 3890 c-12 -5 -25 -16 -28 -25 -3 -8 -10 -13 -14 -10 -8 5 -26
-70 -22 -88 1 -4 4 -44 7 -90 3 -45 7 -109 10 -142 2 -33 6 -91 9 -130 14
-181 19 -266 20 -342 0 -46 3 -83 6 -83 3 0 5 -17 6 -38 2 -93 13 -222 19
-232 3 -5 2 -10 -4 -10 -6 0 -8 -6 -5 -13 2 -7 6 -49 8 -93 3 -68 1 -84 -20
-120 -35 -62 -125 -242 -125 -251 0 -5 -6 -17 -13 -28 -7 -11 -30 -72 -51
-135 -20 -63 -40 -122 -42 -130 -3 -8 -7 -24 -8 -35 -2 -11 -9 -49 -15 -85
-17 -86 -19 -113 -25 -260 -3 -69 -8 -131 -10 -138 -2 -6 -1 -12 3 -12 4 0 8
-35 9 -78 1 -66 8 -137 13 -137 1 0 3 -13 5 -30 11 -89 98 -307 143 -357 8
-10 12 -18 8 -18 -4 0 -1 -6 6 -14 7 -8 36 -41 63 -73 28 -33 72 -77 99 -99
27 -21 54 -44 60 -49 10 -10 51 -35 124 -76 18 -11 39 -19 47 -19 8 0 15 -4
15 -9 0 -5 8 -11 18 -14 9 -3 61 -21 115 -40 53 -19 97 -33 97 -31 0 2 11 -1
25 -6 14 -5 36 -12 48 -14 12 -3 33 -7 47 -10 28 -7 134 -26 165 -31 85 -13
125 -18 160 -21 22 -1 40 -3 40 -4 0 -7 456 -23 650 -23 184 1 580 16 580 23
0 1 20 3 45 5 63 4 139 13 159 19 9 3 32 7 51 10 19 3 46 8 60 11 14 4 34 8
45 9 53 9 89 17 97 22 4 3 18 7 29 9 88 17 356 132 367 157 2 5 9 8 15 8 7 0
23 12 36 25 13 14 27 25 33 25 17 0 176 169 207 221 34 57 102 202 106 224 0
6 4 17 7 25 10 23 39 159 46 215 16 127 6 427 -18 541 -5 27 -12 58 -13 69
-12 67 -52 207 -77 270 -8 19 -15 40 -19 57 -1 4 -22 46 -46 93 -24 47 -41 85
-37 85 4 0 2 4 -4 8 -6 4 -21 27 -35 52 -13 25 -28 48 -34 52 -10 7 -10 116
-1 253 2 39 7 113 10 165 4 52 9 133 12 180 4 47 7 120 8 162 0 43 3 78 6 78
3 0 5 19 4 43 0 23 4 48 9 55 6 8 6 12 -2 12 -7 0 -10 4 -7 9 6 10 14 118 21
275 2 60 0 108 -7 120 -38 74 -110 82 -208 21 -36 -22 -70 -44 -76 -50 -7 -5
-42 -28 -79 -50 -37 -22 -76 -48 -86 -57 -11 -10 -19 -16 -19 -13 0 7 -113
-67 -122 -80 -4 -5 -8 -7 -8 -2 0 8 -113 -64 -118 -75 -2 -5 -8 -8 -13 -8 -11
0 -173 -102 -177 -112 -2 -5 -8 -8 -13 -8 -5 0 -40 -20 -79 -45 -38 -24 -80
-46 -93 -49 -14 -2 -50 4 -81 15 -32 10 -61 18 -64 17 -4 -1 -14 2 -22 5 -8 3
-33 9 -55 12 -22 3 -49 8 -60 10 -152 27 -495 27 -625 0 -14 -3 -43 -8 -65
-11 -22 -4 -47 -10 -56 -15 -9 -4 -19 -6 -22 -2 -4 3 -13 0 -22 -7 -8 -7 -15
-10 -15 -7 0 3 -23 -1 -52 -8 -46 -13 -55 -12 -80 3 -15 9 -28 20 -28 24 0 4
-5 8 -11 8 -6 0 -31 14 -56 30 -24 17 -48 30 -54 30 -5 0 -9 5 -9 10 0 6 -7
10 -15 10 -8 0 -15 5 -15 10 0 6 -5 10 -11 10 -6 0 -30 14 -54 30 -24 17 -46
30 -50 30 -3 0 -39 23 -81 50 -41 28 -77 50 -79 50 -4 0 -166 105 -217 141
-15 10 -32 19 -38 19 -5 0 -10 5 -10 10 0 6 -7 10 -15 10 -8 0 -15 5 -15 10 0
6 -4 10 -9 10 -6 0 -39 18 -75 41 -68 42 -124 56 -164 39z m1828 -663 c0 -5 4
-6 9 -3 18 11 37 -5 39 -32 5 -129 16 -221 33 -284 6 -24 11 -44 10 -45 0 -2
7 -22 15 -45 9 -24 17 -47 18 -53 1 -5 11 -28 21 -50 10 -22 17 -43 17 -47 -1
-5 3 -8 10 -8 6 0 8 -3 5 -6 -4 -4 2 -19 13 -34 11 -16 20 -33 20 -39 0 -6 5
-11 10 -11 6 0 10 -6 10 -13 0 -7 9 -23 20 -35 11 -12 20 -26 20 -32 0 -6 7
-13 15 -16 8 -4 13 -10 10 -14 -3 -4 2 -11 11 -14 8 -3 13 -10 9 -15 -3 -5 4
-12 15 -16 11 -3 20 -11 20 -16 0 -12 111 -122 160 -159 18 -14 39 -31 46 -37
7 -7 17 -13 23 -13 6 0 11 -4 11 -10 0 -5 6 -10 14 -10 8 0 16 -4 18 -8 5 -15
201 -109 250 -121 4 -1 24 -9 43 -17 20 -8 40 -12 45 -9 6 4 10 2 10 -4 0 -5
9 -8 20 -6 11 2 20 0 20 -4 0 -4 6 -8 13 -8 6 -1 44 -4 82 -8 119 -13 306 -7
366 11 22 6 35 -12 49 -66 6 -25 14 -52 17 -60 3 -8 7 -32 8 -52 2 -20 6 -41
9 -46 18 -29 27 -378 14 -507 -8 -76 -52 -242 -69 -259 -5 -6 -9 -18 -9 -28 0
-10 -8 -26 -17 -36 -10 -10 -19 -25 -21 -33 -2 -8 -10 -21 -18 -30 -8 -8 -14
-20 -14 -25 0 -18 -178 -194 -197 -194 -3 0 -14 -6 -22 -14 -29 -26 -146 -82
-231 -111 -47 -15 -93 -32 -102 -36 -10 -5 -26 -9 -36 -9 -10 0 -23 -5 -30
-12 -9 -9 -12 -9 -12 1 0 10 -3 11 -13 3 -7 -6 -28 -12 -45 -14 -18 -1 -32 -6
-32 -11 0 -4 -3 -6 -7 -4 -5 3 -33 1 -63 -4 -79 -13 -141 -21 -175 -24 -16 -2
-58 -6 -92 -10 -187 -19 -833 -28 -833 -11 0 6 -5 5 -12 -2 -8 -8 -15 -9 -25
-1 -9 9 -13 8 -13 0 0 -7 -5 -9 -11 -6 -6 4 -43 9 -82 11 -112 6 -258 19 -327
30 -19 3 -48 8 -65 10 -16 2 -41 6 -55 9 -14 3 -41 8 -60 11 -19 3 -48 9 -65
14 -16 5 -50 14 -75 21 -63 18 -204 71 -210 79 -3 4 -16 11 -30 15 -30 9 -134
74 -138 86 -2 5 -8 9 -13 9 -20 0 -179 177 -179 199 0 6 -5 11 -10 11 -6 0 -9
3 -8 8 1 4 -10 30 -25 58 -14 28 -23 54 -20 58 4 3 2 6 -4 6 -9 0 -14 15 -23
65 -1 2 -6 19 -11 37 -27 90 -30 115 -33 328 -2 118 1 212 9 260 7 41 14 75
15 75 1 0 3 9 4 20 8 57 17 98 25 113 4 9 6 23 4 30 -6 15 -8 15 162 17 118 1
181 6 240 19 6 1 37 8 70 15 67 14 175 50 190 63 5 4 17 8 27 8 10 0 18 4 18
9 0 5 13 11 29 14 16 3 36 13 44 22 9 8 23 15 31 15 9 0 16 4 16 9 0 5 9 13
20 16 11 3 26 12 32 18 7 7 36 30 63 52 81 65 212 202 207 218 -1 4 2 7 7 7 4
0 20 18 35 40 14 22 24 40 21 40 -3 0 3 10 15 22 11 12 20 26 20 31 0 5 10 23
22 40 13 18 22 33 21 34 -1 2 8 26 21 55 29 68 38 90 43 106 1 6 5 18 6 25 2
6 7 19 10 27 15 41 26 114 31 205 1 28 6 56 10 63 4 7 3 12 -2 12 -10 0 -4 50
7 51 3 0 15 2 26 5 11 2 43 7 70 10 28 3 51 7 52 8 8 7 343 0 343 -7z"/>
<path d="M1022 1958 c-90 -24 -132 -122 -90 -210 10 -21 27 -42 36 -45 9 -4
23 -12 29 -19 23 -22 113 -12 158 19 22 15 35 27 30 27 -6 0 -3 5 5 10 11 7
15 27 15 74 0 58 -3 68 -30 96 -45 48 -96 64 -153 48z"/>
<path d="M2916 1962 c-4 -4 -12 -8 -17 -8 -5 -1 -13 -2 -17 -3 -19 -3 -71 -58
-77 -82 -12 -49 -12 -64 -1 -78 9 -12 8 -13 -2 -7 -11 6 -10 2 1 -20 16 -30
47 -61 83 -81 31 -17 125 -10 139 11 7 9 18 16 24 16 33 0 61 139 33 166 -7 8
-11 14 -7 14 3 0 -6 13 -22 29 -15 16 -31 27 -35 24 -5 -2 -8 0 -8 4 0 5 -16
10 -37 11 -20 2 -39 5 -43 7 -4 3 -10 1 -14 -3z"/>
<path d="M952 1579 c-12 -5 -22 -6 -22 -2 0 3 -6 0 -13 -6 -8 -6 -17 -8 -20
-4 -4 3 -7 1 -7 -5 0 -6 -9 -13 -20 -17 -23 -7 -84 -66 -88 -86 -2 -7 -9 -17
-15 -21 -7 -4 -9 -8 -6 -8 3 0 0 -22 -6 -48 -11 -42 -12 -69 -3 -139 1 -7 4
-13 8 -13 3 0 7 -10 7 -22 1 -13 7 -24 13 -26 5 -2 10 -9 10 -16 0 -17 71 -75
116 -95 21 -9 54 -17 72 -16 17 0 32 -4 32 -9 0 -5 6 -4 13 1 6 5 22 8 35 7
12 0 22 3 22 7 0 5 3 8 8 7 14 -3 62 14 62 23 0 5 5 9 10 9 18 0 67 53 90 97
12 23 22 60 23 82 1 23 6 41 11 41 5 0 4 6 -1 13 -6 6 -9 22 -8 35 1 12 -3 22
-8 22 -6 0 -8 3 -4 6 19 19 -68 129 -127 159 -49 26 -145 38 -184 24z"/>
<path d="M2945 1582 c-2 -2 -11 -5 -22 -7 -10 -2 -19 -4 -20 -5 -2 -2 -6 -3
-10 -4 -13 -2 -66 -39 -86 -59 -21 -21 -70 -107 -61 -107 4 0 1 -7 -6 -15 -18
-22 -7 -135 19 -185 35 -67 136 -150 162 -134 5 3 9 1 9 -4 0 -14 131 -8 165
8 17 7 33 13 38 12 4 -1 7 3 7 8 0 6 11 15 24 21 19 9 79 87 82 108 0 3 4 14
9 24 12 29 12 89 -1 135 -7 23 -12 45 -12 48 1 15 -65 97 -82 101 -11 3 -17 9
-15 14 12 18 -183 57 -200 41z"/>
<path d="M2079 1179 c-52 -46 -89 -62 -89 -37 0 6 -3 9 -6 5 -4 -3 -23 10 -43
29 -20 19 -46 37 -59 40 -26 7 -52 -11 -52 -35 0 -16 32 -51 48 -51 4 0 28
-20 53 -43 45 -41 46 -43 44 -99 -1 -51 -18 -88 -41 -88 -3 0 -15 -10 -25 -22
-11 -11 -19 -19 -19 -15 0 3 -13 -7 -30 -21 -31 -28 -39 -55 -17 -69 23 -15
40 -11 66 13 14 14 45 36 68 50 l42 25 36 -35 c20 -20 41 -36 46 -36 6 0 8 -4
5 -9 -8 -12 39 -20 58 -9 34 19 8 58 -82 128 -31 24 -32 27 -31 93 2 64 4 68
37 95 92 71 112 108 68 128 -21 10 -29 6 -77 -37z"/>
</g>
</svg>
